# xmcd
#
# Track frame offsets:
#	150
#	19534
#	38201
#	54760
#	66913
#	88940
#	100764
#	116590
#	135353
#	148956
#	162242
#	179752
#	198298
#	217262
#
# Disc length: 3203 seconds
#
# Revision: 1
# Processed by: cddbd v1.5.2PL0 Copyright (c) Steve Scherf et al.
# Submitted via: audiograbber 1.83.01
#
DISCID=cb0c810e
DTITLE=Various Artist - Golden Pop Hits 10
DYEAR=2007
DGENRE=Oldies
TTITLE0=Haddaway - Life (Radio Edit)
TTITLE1=Bad Boys Blue - Come Back And Stay
TTITLE2=Christie, Tony - I Did What I Did For Maria
TTITLE3=Kincade - Dreams Are Ten A Penny
TTITLE4=Chyp - Notic - Nothing Compares 2U
TTITLE5=Flowerpot Men, The - Let`s Go To San Francisco
TTITLE6=A la Carte - Do Wah Diddy Diddy '98
TTITLE7=Soultains - I Heard It Through The Grapevine
TTITLE8=Phil and John - Marina (engl)
TTITLE9=Christian, Dennie - Baby How Are You (englisch)
TTITLE10=Henry and the Fun Company - Lady In Black (Party Version)
TTITLE11=Londonbeat - I've Been Thinking About You
TTITLE12=Petry, Wolfgang - Stranger In the Crowd
TTITLE13=Weather Girls - It's Rainin' Men (Live)
EXTD=
EXTT0=
EXTT1=
EXTT2=
EXTT3=
EXTT4=
EXTT5=
EXTT6=
EXTT7=
EXTT8=
EXTT9=
EXTT10=
EXTT11=
EXTT12=
EXTT13=
PLAYORDER=
